<?xml version="1.0" encoding="UTF-8"?><svg id="Capa_1" xmlns="http://www.w3.org/2000/svg" viewBox="0 0 574.42 552.39"><defs><style>.cls-1{fill:#fae9d8;}</style></defs><path class="cls-1" d="M160.27,264.69c-1.67-12.31-14.94-17.42-28.91-14.84-14.48,2.66-17.17,4.23-31.8,5.93-40.19,4.67-79.61-17.42-93.35-50.3-14.24-34.1-3.78-83.8,28.97-108.55,17.45-13.19,42.59-17.64,64.75-18.77,24.88-1.26,87.75,9.78,122.43,5.29,59.34-7.7,96.22-25.79,121.94-49.27,53.8-49.12,185.7-56.8,221.64,55.08,37.93,118.05-62.06,171.98-86.6,175.8-14.99,2.33-25.28,5.49-28.64,19.91-3.43,14.75,2.38,42.55.56,57.61-1.21,10.05-14.87,23.02-32.66,13.96-24.74-12.62-49-40.25-92.58-45.91-46.17-6.01-79.67,11.24-101.09,25.31-21.53,14.15-33.68,33.16-42.24,42.19-6.64,6.96-20.21,9.3-26.27,5.16-5.16-3.51-14.68-14.15-5.49-26.12,6.92-9.02,19.97-14.57,24.35-22.77,7.24-13.55,2.83-20.86-3.25-31.57-7.67-13.51-9.71-23.41-11.73-38.13M395.77,297.03c13.53,4.78,17.88-.15,21.07-3.56,3.58-3.83,5.93-15.07-4.25-20.39-14.35-7.5-22.61-12.79-50.69-35.84-28.14-23.08-27.86-30.61-44.23-50.48-4.89-5.93-14.84-1.58-19.12,1.12-27.29,17.1-54.78,36.77-85.14,45.21-24.43,9.85-30.79,20.72-24.84,39.14,3.1,9.62,11.34,22.48,31.47,16.51,38.45-11.41,72.63-16.96,111.87-12.98,17.24,1.74,59.13,19.59,63.86,21.27M158.71,114.79c-29.51-2.59-59.95-15.51-84.16-7.13-31.89,11.04-54.57,52.03-40.39,85,14.89,34.65,42.05,33.19,64.27,33.01,59.39-.52,97.28-9.69,149.04-38.31,24.91-13.78,51.99-38.64,78.28-37.37,20.28.98,29.35,20.16,30.85,28.35,2.55,13.92,21.98,72.75,97.52,61.4,48.92-7.36,61.07-27.46,77.03-50.32,13.71-19.62,20.3-50.3,14.71-73.84-10.03-42.21-37.81-77.43-96.73-80.93-44.49-2.65-81.68,32.07-119.15,51.64-52.5,27.42-113.66,33.57-171.28,28.49"/><path class="cls-1" d="M314.93,381.99c0-1.69-.08-3.37.01-5.06.86-14.24,11.71-29.52,21.48-28.17,14.91,2.08,18.83,14.02,20.4,26.98.26,2.22.42,4.48.38,6.71-.33,19.36-9.62,33.73-21.55,33.5-10.99-.21-20.92-16.4-20.72-33.96"/><path class="cls-1" d="M221.7,382.79c-.1-19.36,8.62-33.89,20.33-33.87,11.35.01,21.41,15.59,21.64,33.52.24,17.6-9.65,33.33-21.25,33.86-11.73.54-20.61-13.83-20.72-33.51"/><path class="cls-1" d="M292.53,419.8c14.13,1.58,18.06,6.19,19.59,12.06,2.72,10.39-6.32,23.8-34.4,23.53-23.48-.22-33.58-13.36-17.96-29.38,5.13-5.29,23.74-7.21,32.77-6.21"/><path class="cls-1" d="M383.77,481.01c9.61-5.83,13.54-12.48,17.53-14.84,6.22,23.11-25.77,56.09-48.91,55.75-4.99-.07-19.59,3.82-21.21,8.86-7.47,23.19-32.87,26.22-46.17,16.15-11.06-8.37-8.9-27.44-30.22-22.93-17.47,3.7-36.15-.14-44.63-5.22-22.97-13.74-23.74-21.36-25.28-26.59-4.04-13.75,10.67,0,27.81-4.84,23.21-6.54,32.98-18.02,32.98-18.02,11.53-5.59,27.07-3.65,34.52,5.16,5.54,6.57,12.66,8.03,18.92-2.3,9.73-14.43,25.39-13.12,35.04-7.5,5.44,3.17,12.37,11.71,18.3,15.4,9.8,6.11,20.85,7.27,31.32.92M313.29,518.27l-22.47-16.27s-11.07,6.08-11.83,14.04c-.33,3.47,10.67,11.46,18.84,10.77,12.33-1.06,15.45-8.54,15.45-8.54"/></svg>